#!OML:ASF X:\für Bonn\!DataBase\2005_08_12_Daniel\c3d\Daniel.ASF
:FULLY-SPECIFIED
:DEGREES
49
root -3.8872 10.7986 -1.13926 341.889 -87.8409 -366.414
lowerback 46.9102 -2.72666 2.23254
upperback 5.26437 -3.96109 -3.27388
thorax -16.1197 -2.27016 -2.66805
lowerneck 8.09755 1.44752 -0.649966
upperneck -4.29714 1.95025 1.44383
head -2.80808 0.926233 0.483484
rclavicle 7.95139e-016 -2.06736e-014
rhumerus 91.0256 -21.234 -199.26
rradius 7.83694
rwrist 167.674
rhand -25.1322 16.3286
rfingers 7.12502
rthumb 1.38389 -13.6467
lclavicle 7.95139e-016 -2.06736e-014
lhumerus 65.5322 -14.9053 58.2186
lradius 17.2849
lwrist -31.9804
lhand -16.4936 0.7223
lfingers 7.12502
lthumb 9.72393 30.4778
rfemur -22.5346 -48.4544 -29.6871
rtibia 120.109
rfoot -10.1596 49.6862
rtoes -2.24529
lfemur -40.7025 33.0054 10.9235
ltibia 119.919
lfoot -10.5957 -49.953
ltoes 12.1325
50
root -3.87394 10.6016 -1.14697 342.205 -87.8598 -367.124
lowerback 47.5632 -2.70752 2.20582
upperback 5.37104 -3.97045 -3.24804
thorax -16.1641 -2.28174 -2.6045
lowerneck 8.23129 1.455 -0.636791
upperneck -4.54055 1.96423 1.43532
head -2.91622 0.931932 0.476657
rclavicle -2.40529e-014 -1.90833e-014
rhumerus 90.9716 -20.8569 -199.445
rradius 7.88921
rwrist 168.063
rhand -25.2864 16.3589
rfingers 7.12502
rthumb 1.23497 -13.6173
lclavicle -2.40529e-014 -1.90833e-014
lhumerus 65.8744 -14.8149 57.7547
lradius 17.4529
lwrist -31.8811
lhand -16.5575 0.646446
lfingers 7.12502
lthumb 9.66231 30.4048
rfemur -21.1284 -50.0046 -33.3153
rtibia 121.861
rfoot -8.95362 51.6447
rtoes -1.69617
lfemur -41.0272 34.8363 12.7607
ltibia 121.596
lfoot -9.62913 -51.5925
ltoes 12.3685
51
root -3.8614 10.4065 -1.15472 342.335 -87.8741 -367.621
lowerback 49.0722 -2.68689 2.11329
upperback 4.41201 -3.97951 -3.17479
thorax -16.0377 -2.27152 -2.47126
lowerneck 8.35193 1.46412 -0.635586
upperneck -4.76922 1.97799 1.41291
head -3.01727 0.938392 0.467458
rclavicle 7.15625e-015 -3.97569e-015
rhumerus 90.9225 -20.4906 -199.614
rradius 7.91488
rwrist 168.408
rhand -25.3731 16.3414
rfingers 7.12502
rthumb 1.15124 -13.6353
lclavicle 7.15625e-015 -3.97569e-015
lhumerus 66.2812 -14.76 57.1455
lradius 17.6172
lwrist -31.554
lhand -16.5111 0.626858
lfingers 7.12502
lthumb 9.70708 30.3832
rfemur -19.4114 -51.5616 -37.3351
rtibia 123.581
rfoot -7.6421 53.6213
rtoes -1.19677
lfemur -41.3083 36.6688 14.6549
ltibia 123.246
lfoot -8.64454 -53.207
ltoes 12.5513
52
root -3.8495 10.2144 -1.16343 342.65 -87.8898 -368.32
lowerback 49.7388 -2.65801 2.08241
upperback 4.4874 -3.98187 -3.14826
thorax -16.0541 -2.28098 -2.4139
lowerneck 8.43116 1.46543 -0.603878
upperneck -4.99983 1.98664 1.41818
head -3.1114 0.9407 0.462383
rclavicle 3.12092e-014 1.74931e-014
rhumerus 90.8563 -20.0657 -199.821
rradius 7.96291
rwrist 168.724
rhand -25.4281 16.339
rfingers 7.12502
rthumb 1.09811 -13.638
lclavicle 3.12092e-014 1.74931e-014
lhumerus 66.7259 -14.6885 56.5343
lradius 17.7687
lwrist -31.2696
lhand -16.4406 0.572359
lfingers 7.12502
lthumb 9.77511 30.3255
rfemur -17.2971 -53.0512 -41.7935
rtibia 125.274
rfoot -6.39452 55.5986
rtoes -0.800609
lfemur -41.4537 38.4426 16.6578
ltibia 124.833
lfoot -7.42772 -54.7737
ltoes 12.8729
53
root -3.83732 10.0231 -1.17165 342.963 -87.9082 -369.013
lowerback 50.457 -2.633 2.05195
upperback 4.51042 -3.98406 -3.11074
thorax -16.135 -2.28898 -2.34362
lowerneck 8.54005 1.4758 -0.614573
upperneck -5.21381 2.00192 1.41791
head -3.20645 0.947283 0.462413
rclavicle 6.75868e-015 9.54166e-015
rhumerus 90.7812 -19.6506 -200.011
rradius 8.00643
rwrist 168.951
rhand -25.39 16.3476
rfingers 7.12502
rthumb 1.13489 -13.6291
lclavicle 6.75868e-015 9.54166e-015
lhumerus 67.1233 -14.6367 55.9266
lradius 17.9094
lwrist -30.811
lhand -16.3589 0.577174
lfingers 7.12502
lthumb 9.85389 30.3266
rfemur -14.8439 -54.4594 -46.6494
rtibia 126.938
rfoot -5.11424 57.5627
rtoes -0.36077
lfemur -41.4999 40.2676 18.7927
ltibia 126.386
lfoot -6.01688 -56.3511
ltoes 13.1968
54
root -3.82606 9.83122 -1.17983 343.543 -87.9202 -369.965
lowerback 51.1357 -2.61125 2.02054
upperback 4.56021 -3.99308 -3.07004
thorax -16.1717 -2.30107 -2.26717
lowerneck 8.59772 1.48067 -0.594901
upperneck -5.43184 2.01245 1.40306
head -3.29268 0.951629 0.452864
rclavicle -1.49089e-014 -1.51076e-014
rhumerus 90.6518 -19.1779 -200.202
rradius 8.07423
rwrist 169.153
rhand -25.2668 16.3701
rfingers 7.12502
rthumb 1.25385 -13.606
lclavicle -1.49089e-014 -1.51076e-014
lhumerus 67.54 -14.497 55.474
lradius 17.9907
lwrist -30.5491
lhand -16.2692 0.527569
lfingers 7.12502
lthumb 9.94049 30.2729
rfemur -11.8823 -55.7704 -52.0978
rtibia 128.609
rfoot -3.94377 59.5686
rtoes -0.0385991
lfemur -41.4452 42.1695 21.131
ltibia 127.939
lfoot -4.40116 -57.956
ltoes 13.5388
